<svg xmlns="http://www.w3.org/2000/svg" viewBox="0 0 479.65 467.51"><g data-name="Layer 2"><g data-name="Layer 1" fill="#c50c61"><path d="M0 467.51h156.73l9.16-314.87h-12.12l13.68-1.7a15.66 15.66 0 008.45-3.81L234.69 95s-13.33-12.38-27.44.49c-7.19 6.55-19.46 21.08-30.54 10-7-5.49 2.28-24.4 6.27-31.72a3.64 3.64 0 014.68-1.58l23.83 10.69A15.83 15.83 0 00230 78.77l.93-1.08-51.27-30.87L183 23a26.2 26.2 0 00-4.46-18.64l-3-4.34-11 34.14s-3.16-21.94-13.8-19.07l4.58 37S150 36.69 141.6 39.21c-.6.13 9.54 34.81 9.54 34.81zM479.65 467.51H322.88l-9.12-314.87h12.12l-13.68-1.7a15.62 15.62 0 01-8.45-3.81L245 95s13.33-12.38 27.44.49c7.19 6.55 19.46 21.08 30.53 10 7-5.49-2.27-24.4-6.26-31.72a3.64 3.64 0 00-4.71-1.55l-23.84 10.69a15.83 15.83 0 01-18.51-4.14l-.93-1.08L300 46.82 296.64 23a26.2 26.2 0 014.46-18.66l3-4.34 11 34.14s3.16-21.94 13.8-19.07l-4.58 37s5.31-15.37 13.7-12.85c.61.13-9.53 34.81-9.53 34.81z"/></g></g></svg>