<svg xmlns="http://www.w3.org/2000/svg" viewBox="0 0 1685.72 893.58"><g data-name="Layer 2"><g data-name="Layer 1" fill="#0c4684"><path d="M763.48 572.23l-114.55-44.21L0 .02s5.16 337.5 5.72 338.8l643.52 247.83 2.83-6.2 4.81 19.89a17 17 0 005.68 8.38l63.41 33.46s7.93-10.25-12.56-23.1c-8.4-6.52-11.33-14.69-5.35-25.17 8.67-15.18 15.76-11.57 51.58 2.16 0 0 31.7 41.82 49 31.68-5.59-7.15-45.16-55.52-45.16-55.52zM935.01 667.79c5.51 2 9.11 3.49 10.16 16.24 1.4 17-15.21 13.34-25.72 14.9-20.63 3.07-20.23 16.57-20.23 16.57l83.12-5.86a17.07 17.07 0 009.06-4.52l10.88-10.41-8.32 10.3 244.57 188.56 447.19-.65-743.5-246.38s-73.28-1.43-80-.8c.41 19.22 66.26 19.6 72.79 22.05zM857.47 643.7l-27.38-13.94 2.72 6.94-20.56-5.89 28.54 18.06-3.45-8.58 20.13 3.41z"/></g></g></svg>