<svg xmlns="http://www.w3.org/2000/svg" width="27" height="24"><g fill="#222" opacity=".699"><path d="M7.251 8.264V6.187h5.04V.964A4.19 4.19 0 009.649.032c-2.057 0-3.77 1.472-4.111 3.403a3.67 3.67 0 00-.58-.047c-1.992 0-3.613 1.596-3.613 3.558 0 .551.13 1.091.376 1.58A4.259 4.259 0 000 11.953c0 1.432.734 2.768 1.915 3.563a4.23 4.23 0 00-.134 1.06c0 2.21 1.697 4.036 3.875 4.282.525 1.7 2.14 2.917 3.993 2.917a4.19 4.19 0 002.642-.932V17.62h-5.04v-2.077H5.993v-1.507h1.258v-1.38H5.993V11.15h1.258V9.77H5.993V8.264h1.258z"/><path d="M13.821 10.564h-2.125v2.68h2.72v-2.68z"/><path d="M13.821 7.694h-5.04v8.42h8.55v-8.42h-3.51zm2.125 7.056h-5.78V9.058h5.78v5.692z"/><path d="M26.112 11.954a4.262 4.262 0 00-1.72-3.429 3.515 3.515 0 00.375-1.579c0-1.962-1.62-3.558-3.613-3.558a3.67 3.67 0 00-.58.047c-.34-1.93-2.054-3.403-4.11-3.403a4.19 4.19 0 00-2.643.932v5.223h5.04v2.077h1.258v1.507h-1.258v1.38h1.258v1.506h-1.258v1.38h1.258v1.507h-1.258v2.077h-5.04v5.223a4.19 4.19 0 002.642.932c1.852 0 3.468-1.217 3.993-2.917 2.178-.246 3.875-2.073 3.875-4.283 0-.36-.045-.715-.134-1.059a4.317 4.317 0 001.915-3.563z"/></g></svg>