<svg xmlns="http://www.w3.org/2000/svg" width="30" height="30"><g fill="none" fill-rule="evenodd" stroke-width="2.016" transform="translate(-1 -1)"><path stroke="#F1476E" stroke-linecap="round" stroke-linejoin="round" d="M15.725 29.03c7.348 0 13.305-5.957 13.305-13.305 0-7.349-5.957-13.306-13.305-13.306-7.349 0-13.306 5.957-13.306 13.306"/><path stroke="#3AACFA" stroke-linecap="round" stroke-linejoin="round" d="M7.749 8.022c-4.254 4.405-4.132 11.425.273 15.679 4.405 4.254 11.425 4.131 15.679-.274s4.131-11.424-.274-15.678"/><path stroke="#40C1A5" stroke-linecap="round" stroke-linejoin="round" d="M15.725 24.394a8.669 8.669 0 10-8.669-8.67"/><path stroke="#FBBB33" stroke-linecap="round" stroke-linejoin="round" d="M21.145 17.915a5.846 5.846 0 10-7.61 3.23"/><circle cx="15.725" cy="15.725" r="2.621" stroke="#9665E1"/></g></svg>