<svg xmlns="http://www.w3.org/2000/svg" width="17.127" height="19.885" viewBox="0 0 17.127 19.885"><g transform="translate(0.375 0.375)"><path d="M874.914,258.6v-3.643a1.975,1.975,0,0,1,1.262-1.842l3.225-1.248" transform="translate(-874.914 -239.467)" fill="none" stroke="#858585" stroke-linecap="round" stroke-linejoin="round" stroke-width="0.75"></path><path d="M891.291,258.6v-3.643a1.974,1.974,0,0,0-1.249-1.842l-3.193-1.248" transform="translate(-874.914 -239.467)" fill="none" stroke="#858585" stroke-linecap="round" stroke-linejoin="round" stroke-width="0.75"></path><path d="M880.288,250.414l-1.035,1.091,1.959,3,1.839-2.022Z" transform="translate(-874.914 -239.467)" fill="none" stroke="#858585" stroke-linecap="round" stroke-linejoin="round" stroke-width="0.75"></path><path d="M885.9,250.414l1.039,1.091-1.968,3-1.848-2.022Z" transform="translate(-874.914 -239.467)" fill="none" stroke="#858585" stroke-linecap="round" stroke-linejoin="round" stroke-width="0.75"></path><line y2="5.95" transform="translate(8.137 13.011)" fill="none" stroke="#858585" stroke-linecap="round" stroke-linejoin="round" stroke-width="0.75"></line><line y2="2.664" transform="translate(2.872 16.471)" fill="none" stroke="#858585" stroke-linecap="round" stroke-linejoin="round" stroke-width="0.75"></line><line y2="2.81" transform="translate(13.402 16.325)" fill="none" stroke="#858585" stroke-linecap="round" stroke-linejoin="round" stroke-width="0.75"></line><line y1="1.531" x2="0.259" transform="translate(5.653 9.624)" fill="none" stroke="#858585" stroke-linecap="round" stroke-linejoin="round" stroke-width="0.75"></line><line x1="0.368" y1="1.522" transform="translate(10.335 9.633)" fill="none" stroke="#858585" stroke-linecap="round" stroke-linejoin="round" stroke-width="0.75"></line><rect width="9.838" height="9.976" rx="4.919" transform="translate(3.241)" stroke-width="0.75" stroke="#858585" stroke-linecap="round" stroke-linejoin="round" fill="none"></rect><path d="M887.95,243.765s-2.4.409-3.329-1.52c-4.784,2.469-6.467,2.141-6.467,2.141" transform="translate(-874.914 -239.467)" fill="none" stroke="#858585" stroke-linecap="round" stroke-linejoin="round" stroke-width="0.75"></path></g></svg>