<svg xmlns="http://www.w3.org/2000/svg" width="13.126" height="17.614" viewBox="0 0 13.126 17.614"><g transform="translate(0.375 0.375)"><rect width="12.376" height="10.1" rx="1.682" transform="translate(0 6.763)" stroke-width="0.75" stroke="#858585" stroke-linecap="round" stroke-linejoin="round" fill="none"></rect><path d="M886.717,317.861a1.689,1.689,0,0,1-.921,1.5v1.726a.762.762,0,0,1-.762.762h0a.762.762,0,0,1-.762-.762V319.37a1.688,1.688,0,1,1,2.445-1.509Z" transform="translate(-878.841 -306.895)" fill="none" stroke="#858585" stroke-linecap="round" stroke-linejoin="round" stroke-width="0.75"></path><path d="M889.938,313.683v-1.941a4.847,4.847,0,0,0-4.846-4.847h0a4.846,4.846,0,0,0-4.846,4.847v1.941" transform="translate(-878.841 -306.895)" fill="none" stroke="#858585" stroke-linecap="round" stroke-linejoin="round" stroke-width="0.75"></path><path d="M888.057,313.658v-2.034a2.965,2.965,0,0,0-2.965-2.965h0a2.966,2.966,0,0,0-2.966,2.965v2.034" transform="translate(-878.841 -306.895)" fill="none" stroke="#858585" stroke-linecap="round" stroke-linejoin="round" stroke-width="0.75"></path></g></svg>