<svg xmlns="http://www.w3.org/2000/svg" xmlns:xlink="http://www.w3.org/1999/xlink" width="122" height="125">
  <defs>
    <circle id="a" cx="60" cy="60" r="60"/>
    <radialGradient id="b" cx="52.101%" cy="30.594%" r="283.017%" fx="52.101%" fy="30.594%" gradientTransform="matrix(-.17241 0 0 -.25522 .61 .384)">
      <stop offset="0%"/>
      <stop offset="100%" stop-opacity=".002"/>
    </radialGradient>
    <filter id="c" width="129.5%" height="271%" x="-14.7%" y="-85.5%" filterUnits="objectBoundingBox">
      <feGaussianBlur in="SourceGraphic" stdDeviation="2.85"/>
    </filter>
    <linearGradient id="e" x1="88.081%" x2="26.195%" y1="89.849%" y2="4.032%">
      <stop offset="0%" stop-color="#FFE474" stop-opacity=".131"/>
      <stop offset="100%" stop-color="#FFC540"/>
    </linearGradient>
    <circle id="f" cx="60" cy="60" r="60"/>
    <linearGradient id="g" x1="24.757%" x2="80.291%" y1="50%" y2="68.605%">
      <stop offset="0%" stop-color="#FFE474" stop-opacity=".131"/>
      <stop offset="100%" stop-color="#FFC540"/>
    </linearGradient>
    <linearGradient id="h" x1="63.946%" x2="32.054%" y1="-23.583%" y2="76.981%">
      <stop offset="0%" stop-color="#56749D"/>
      <stop offset="100%" stop-color="#25395B"/>
    </linearGradient>
    <linearGradient id="i" x1="18.656%" x2="92.09%" y1="18.019%" y2="87.288%">
      <stop offset="0%" stop-color="#5F80AB"/>
      <stop offset="100%" stop-color="#293F64"/>
    </linearGradient>
    <linearGradient id="j" x1="50%" x2="50%" y1="0%" y2="100%">
      <stop offset="0%" stop-color="#5B79A2"/>
      <stop offset="100%" stop-color="#2E4469"/>
    </linearGradient>
    <filter id="k" width="128.6%" height="144.4%" x="-14.3%" y="-22.2%" filterUnits="objectBoundingBox">
      <feGaussianBlur in="SourceGraphic" stdDeviation="2"/>
    </filter>
    <linearGradient id="l" x1="72.404%" x2="21.171%" y1="-23.583%" y2="76.981%">
      <stop offset="0%" stop-color="#56749D"/>
      <stop offset="100%" stop-color="#25395B"/>
    </linearGradient>
    <radialGradient id="m" cx="39.224%" cy="42.672%" r="251.464%" fx="39.224%" fy="42.672%" gradientTransform="matrix(-.19405 0 0 -.25522 .468 .536)">
      <stop offset="0%"/>
      <stop offset="100%" stop-opacity=".002"/>
    </radialGradient>
    <filter id="n" width="125.6%" height="232.1%" x="-12.8%" y="-66.1%" filterUnits="objectBoundingBox">
      <feGaussianBlur in="SourceGraphic" stdDeviation="1.824"/>
    </filter>
    <filter id="o" width="125.6%" height="232.1%" x="-12.8%" y="-66.1%" filterUnits="objectBoundingBox">
      <feGaussianBlur in="SourceGraphic" stdDeviation="1.824"/>
    </filter>
    <radialGradient id="p" cx="39.224%" cy="42.672%" r="90.077%" fx="39.224%" fy="42.672%" gradientTransform="matrix(-.54172 0 0 -.25522 .605 .536)">
      <stop offset="0%"/>
      <stop offset="100%" stop-opacity=".002"/>
    </radialGradient>
    <filter id="q" width="171.6%" height="232.1%" x="-35.8%" y="-66.1%" filterUnits="objectBoundingBox">
      <feGaussianBlur in="SourceGraphic" stdDeviation="1.824"/>
    </filter>
    <filter id="r" width="171.6%" height="232.1%" x="-35.8%" y="-66.1%" filterUnits="objectBoundingBox">
      <feGaussianBlur in="SourceGraphic" stdDeviation="1.824"/>
    </filter>
    <linearGradient id="s" x1="151.989%" x2="-9.054%" y1="44.482%" y2="53.913%">
      <stop offset="0%" stop-color="#5B79A2"/>
      <stop offset="100%" stop-color="#2E4469"/>
    </linearGradient>
    <linearGradient id="t" x1="151.989%" x2="-9.054%" y1="48.686%" y2="50.932%">
      <stop offset="0%" stop-color="#5B79A2"/>
      <stop offset="100%" stop-color="#2E4469"/>
    </linearGradient>
    <linearGradient id="u" x1="151.989%" x2="-9.054%" y1="42.487%" y2="55.328%">
      <stop offset="0%" stop-color="#5B79A2"/>
      <stop offset="100%" stop-color="#2E4469"/>
    </linearGradient>
    <linearGradient id="v" x1="8.332%" y1="50%" y2="57.469%">
      <stop offset="0%" stop-color="#FFE474" stop-opacity=".131"/>
      <stop offset="100%" stop-color="#FFC540"/>
    </linearGradient>
    <linearGradient id="w" x1="170.812%" x2=".733%" y1="54.288%" y2="50.088%">
      <stop offset="0%" stop-color="#F2A27A"/>
      <stop offset="100%" stop-color="#FFC73C"/>
    </linearGradient>
    <linearGradient id="x" x1="43.192%" x2="7.635%" y1="54.66%" y2="12.644%">
      <stop offset="0%" stop-color="#56749D"/>
      <stop offset="100%" stop-color="#7093C2"/>
    </linearGradient>
    <linearGradient id="y" x1="47.179%" x2="53.788%" y1="11.947%" y2="94.368%">
      <stop offset="0%" stop-color="#5F80AB"/>
      <stop offset="100%" stop-color="#293F64"/>
    </linearGradient>
  </defs>
  <g fill="none" fill-rule="evenodd" transform="translate(-13 -9)">
    <g transform="translate(14 13)">
      <mask id="d" fill="#fff">
        <use xlink:href="#a"/>
      </mask>
      <use fill="#000" fill-opacity=".152" xlink:href="#a"/>
      <ellipse cx="65.124" cy="110.396" fill="url(#b)" filter="url(#c)" mask="url(#d)" opacity=".5" rx="29" ry="5" transform="rotate(1 65.124 110.396)"/>
      <use stroke="url(#e)" stroke-width="2" xlink:href="#f"/>
    </g>
    <g transform="translate(100 87)">
      <path stroke="url(#g)" stroke-width="2" d="M0 0l3.272 29.55 14.316-14.775L23 19.345"/>
      <circle cx="3.297" cy="29.511" r="2.5" fill="#E3B156"/>
      <path fill="#FFF" fill-opacity=".1" d="M3.02 27.01c.728 0 1.374.351 1.78.892a2.222 2.222 0 0 0-3.112 3.11A2.222 2.222 0 0 1 3.02 27.01z"/>
      <circle cx="17.297" cy="15.511" r="3.5" fill="#FAC446"/>
      <path fill="#FFF" fill-opacity=".2" d="M17.13 12.01c1.09 0 2.057.523 2.665 1.332a3.333 3.333 0 0 0-4.667 4.666 3.333 3.333 0 0 1 2.002-5.997z"/>
    </g>
    <path stroke="url(#h)" stroke-width="2" d="M49 26.76S37.315 21.848 42.19 37"/>
    <g transform="rotate(40 30.657 85.508)">
      <rect width="86" height="78" x="9.439" y="2.389" fill="#1B283E" stroke="#1B283E" rx="5.618"/>
      <rect width="84.089" height="77.089" x="8" y="1.911" fill="url(#i)" rx="5.35"/>
      <rect width="78.356" height="73.266" x="10.548" y="3.823" fill="url(#j)" rx="5.12"/>
      <ellipse cx="21.383" cy="14.179" fill="#FAC446" filter="url(#k)" opacity=".136" rx="21" ry="13.5" style="mix-blend-mode:overlay" transform="translate(29.748 67.193)"/>
      <path stroke="url(#l)" stroke-width="2" d="M27.136 11.695l8.699 6.726 3.72 2.877 32.093 24.816-20.503 28.469L13.678 44.98" transform="rotate(-38 42.663 43.139)"/>
      <ellipse cx="71.385" cy="50.649" fill="url(#m)" filter="url(#n)" opacity=".366" rx="21.341" ry="4.141" transform="rotate(1 71.385 50.65)"/>
      <ellipse cx="70.748" cy="70.399" fill="url(#m)" filter="url(#o)" opacity=".366" rx="21.341" ry="4.141" transform="rotate(1 70.748 70.4)"/>
      <ellipse cx="39.215" cy="70.399" fill="url(#p)" filter="url(#q)" opacity=".366" rx="7.644" ry="4.141" transform="rotate(1 39.215 70.4)"/>
      <ellipse cx="22.652" cy="70.399" fill="url(#p)" filter="url(#r)" opacity=".366" rx="7.644" ry="4.141" transform="rotate(1 22.652 70.4)"/>
      <rect width="54" height="39.5" x="31.719" y="8.919" fill="#1B283E" stroke="#1B283E" opacity=".7" rx="5.12"/>
      <rect width="35.037" height="12.742" x="50.681" y="56.065" fill="#1B283E" stroke="#1B283E" opacity=".7" rx="2.56"/>
      <rect width="14.652" height="12.742" x="13.733" y="56.065" fill="#1B283E" stroke="#1B283E" opacity=".7" rx="2.56"/>
      <rect width="14.652" height="12.742" x="31.705" y="56.188" fill="#1B283E" stroke="#1B283E" opacity=".7" rx="2.56"/>
      <rect width="53" height="39.5" x="31.444" y="7.645" fill="url(#s)" opacity=".502" rx="5.12"/>
      <path d="M37.243 14.547l17.737-.09M37.167 19.49l12.848-.337m-12.575 5.33l17.736-.09m-18.229 5.725l15.428-.328m-15.921 5.964l17.736-.091m-17.463 5.083l8.958-.215" stroke="#3D567B" stroke-linecap="round" stroke-linejoin="round" stroke-width="1.5" opacity=".562"/>
      <rect width="35.037" height="12.742" x="49.407" y="55.427" fill="url(#t)" opacity=".502" rx="2.56"/>
      <rect width="14.652" height="12.742" x="13.096" y="55.427" fill="url(#u)" opacity=".502" rx="2.56"/>
      <rect width="14.652" height="12.742" x="31.068" y="55.551" fill="url(#u)" opacity=".502" rx="2.56"/>
      <path fill="#5173AB" d="M61.09 35.677c-.57 0-1.066-.06-1.49-.183v-2.148c.434.111.83.167 1.19.167.553 0 .95-.177 1.188-.529.24-.352.359-.903.359-1.653V19.925h2.525v11.39c0 1.42-.318 2.503-.953 3.247-.635.744-1.575 1.115-2.818 1.115zm13.799-6.96c0 1.099-.387 1.965-1.16 2.598-.775.632-1.851.949-3.23.949-1.271 0-2.395-.244-3.373-.733v-2.398c.804.367 1.484.625 2.04.775.557.15 1.066.224 1.528.224.554 0 .979-.108 1.275-.324.296-.217.444-.539.444-.966 0-.239-.065-.451-.196-.637a2.207 2.207 0 0 0-.574-.537c-.253-.172-.767-.447-1.544-.824-.727-.35-1.273-.686-1.637-1.008a3.77 3.77 0 0 1-.871-1.124c-.218-.427-.326-.927-.326-1.498 0-1.077.357-1.924 1.07-2.54.715-.616 1.702-.924 2.962-.924.619 0 1.21.075 1.771.225.562.15 1.15.36 1.764.633l-.815 2.006c-.635-.266-1.16-.452-1.576-.558a4.97 4.97 0 0 0-1.226-.158c-.478 0-.844.114-1.1.341-.255.228-.382.525-.382.891 0 .228.051.426.155.596.103.169.267.333.492.49.226.159.76.443 1.601.854 1.113.544 1.876 1.09 2.289 1.636.413.547.619 1.217.619 2.011z"/>
    </g>
    <g transform="rotate(-5 1047.218 -193.441)">
      <path stroke="url(#v)" stroke-width="2" d="M25.6 7.726l-4.463 16.22L7.1 9.407 0 13.995"/>
      <circle cx="21.643" cy="24.5" r="3.5" fill="#FAC446"/>
      <path fill="#FFF" fill-opacity=".2" d="M21.476 21a3.33 3.33 0 0 1 2.665 1.33 3.333 3.333 0 0 0-4.667 4.666A3.333 3.333 0 0 1 21.476 21z"/>
      <circle cx="7.143" cy="9.5" r="2.5" fill="#E3B156"/>
      <rect width="14.399" height="5" x="19.143" y="5" fill="url(#w)" rx="2" transform="rotate(45 26.343 7.5)"/>
    </g>
    <path fill="url(#x)" d="M40.12 25h68.168a2 2 0 0 1 1.366 3.46L38.366 95.12A2 2 0 0 1 35 93.658V30.12A5.12 5.12 0 0 1 40.12 25z" opacity=".376" transform="rotate(40 74.178 61.633)"/>
    <rect width="3" height="10" x="47.632" y="21.484" fill="url(#y)" rx="1.5" transform="rotate(40 49.132 26.484)"/>
    <path stroke="#3D567B" stroke-linecap="round" stroke-linejoin="round" stroke-width="1.5" d="M64.855 80.17l20.994 17.655M61.855 83.17l11.296 9.732m3.704 3.268l6.4 5.534"/>
  </g>
</svg>
